<svg version="1.1" xmlns="http://www.w3.org/2000/svg" width="1024" height="1024" viewBox="246.2728271484375 120.47002410888672 713.878173828125 750.2924194335938"><path d="M865.657 211.803C840.028 240.941 840.028 240.941 827.633 240.941c2.882 4.322 5.773 8.639 8.706 12.926 15.878 24.443 31.191 66.156 21.411 95.497l-0.225 6.551C853.58 392.635 833.476 432.208 802.334 452.969c5.344 5.344 11.758 8.032 18.448 11.521C926.266 520.875 935.867 653.937 950.513 760.17c2.446 17.159 5.244 33.809 9.638 50.598 0 13.54 -31.943 -1.212 -40.96 -4.819 -1.171 6.951 -1.171 6.951 -1.355 15.661 -3.097 56.783 -33.062 57.701 -80.565 36.141q-5.944 -2.458 -11.896 -4.894C790.971 838.012 764.906 813.719 749.327 779.445c-4.315 -8.632 -8.915 -1.84 -15.613 1.728 -13.787 7.021 -28.366 12.648 -42.839 18.095 -8.405 3.906 -9.957 8.102 -13.83 16.319 -6.024 4.819 -6.024 4.819 -8.433 4.819l-1.205 3.614c-16.559 1.008 -16.559 1.008 -25.299 -4.819 -7.392 0.698 -7.392 0.698 -13.025 5.271C609.878 837.891 593.679 833.296 574.645 822.814q-7.057 -3.468 -14.155 -6.851l-7.774 -3.723a3198.495 3198.495 0 0 0 -48.348 -22.462c-20.952 -9.593 -24.745 -19.48 -31.84 -40.847 -3.851 -11.595 -7.9 -23.117 -12.028 -34.617l-2.24 -6.248c-4.018 -11.135 -8.181 -22.174 -12.669 -33.131 -4.981 -12.247 -9.502 -24.636 -13.854 -37.119l-3.737 -10.698c-4.677 -15.553 -2.846 -25.696 15.332 -21.152 8.657 -9.77 16.573 -19.701 22.136 -31.548 8.579 -13.758 20.193 1.197 29.666 8.658 23.681 17.893 23.681 17.893 16.189 3.162 -11.682 -15.717 -10.519 -36.43 -10.541 -55.115l-0.061 -11.981c0.441 -12.051 1.93 -23.003 4.051 -34.852l1.883 -10.692C508.386 465.017 508.386 465.017 510.795 458.993c-1.694 -6.775 -5.542 -8.658 -10.842 -13.252 -8.826 -9.192 -16.885 -18.404 -24.094 -28.913l-4.216 -6.024c-30.338 -52.008 -25.792 -117.491 9.035 -166.249 2.083 -4.245 2.083 -4.245 -3.614 -4.819 -16.336 -9.305 -31.13 -22.346 -50.598 -119.266l5.798 5.873c24.042 23.8 52.826 35.074 84.182 45.996C526.457 175.887 526.457 175.887 534.47 179.435c11.423 4.389 18.079 -0.361 28.315 -5.642 59.38 -27.728 141.564 -29.909 198.109 6.908 6.111 3.511 6.111 3.511 16.141 -1.2l8.602 -2.829c32.491 -10.877 60.245 -22.934 86.57 -45.36l5.346 -4.518c31.524 -28.759 0.451 68.834 -11.896 85.008" fill="#121E2F"/><path d="M391.529 544.527h-2.409c2.253 13.211 3.735 20.745 14.456 28.913 3.096 9.288 5.32 18.159 7.379 27.708 6.795 30.537 15.476 60.394 24.923 90.202C452.894 754.552 384.361 735.892 369.845 686.682c-1.687 -6.884 -3.217 -13.777 -4.683 -20.71 -1.805 -7.797 -4.649 -15.138 -7.364 -22.659 -1.169 -5.067 -2.331 -10.138 -3.392 -15.227 -2.454 -11.111 -5.422 -22.096 -8.302 -33.102 -1.589 -7.228 -1.958 -9.499 2.056 -15.52 -3.036 -19.373 -3.036 -19.373 -17.769 -28.009C211.443 526.223 207.349 342.097 391.529 544.527" fill="#152335"/><path d="M921.529 685.144c0.967 5.732 2.1 11.437 3.308 17.125 1.847 9.932 2.641 19.779 3.356 29.849 -0.183 5.561 -0.183 5.561 3.044 5.162q1.287 11.436 2.409 22.889l1.205 1.205c10.373 61.627 -79.348 0.459 -107.219 -21.685l-6.098 -4.743c-219.19 -186.888 37.864 -426.455 99.994 -49.803" fill="#E32F5E"/><path d="M848.113 201.186h-2.409l-2.409 4.819c-20.42 17.647 -40.897 26.364 -67.091 32.207 -32.386 7.722 -71.668 24.778 -89.521 54.532h-2.409l-2.409 7.228 -3.614 8.433c-2.272 7.722 -2.272 7.722 1.205 12.047v2.409h4.819c1.205 2.409 1.205 2.409 1.656 11.294C691.441 410.217 789.132 398.264 784.264 322.861c-9.715 -34.376 -42.273 -42.912 -73.487 -33.732 10.695 -21.392 48.881 -27.75 69.873 -32.527q8.435 -2.4 16.866 -4.819c55.335 -9.222 67.589 174.393 -45.779 206.005 -27.593 3.449 -87.594 -0.648 -70.098 -38.099C696.03 388.863 696.806 359.196 660.179 344.546c0 -32.355 20.55 -68.742 42.165 -91.558l5.271 -6.024c26.53 -28.68 58.717 -45.216 95.248 -57.75 77.523 -26.754 77.523 -26.754 45.251 11.971" fill="#E9BCB1"/><path d="M458.24 166.852c20.039 11.506 40.85 19.699 62.682 27.111C537.187 199.767 552.187 206.69 566.212 216.847l6.475 4.518C597.488 240.104 681.009 328.797 633.675 351.774c-25.989 25.989 -14.601 53.57 2.409 81.92 0 55.459 -164.141 24.225 -165.421 -98.184 0.081 -17.49 14.258 -97.869 42.541 -83.727a672.226 672.226 0 0 0 16.715 3.991c13.555 3.219 77.726 34.459 55.492 31.021 -64.79 -9.923 -83.872 84.048 -20.405 99.915 39.518 1.387 61.356 -22.353 65.054 -61.44l1.205 -2.409c1.626 -10.96 1.626 -10.96 -2.409 -18.071l-2.484 -4.592c-20.899 -36.907 -60.102 -52.924 -98.936 -64.151 -47.835 -13.869 -106.109 -91.129 -69.196 -69.196" fill="#F4F0E5"/><path d="M703.097 640.076c3.889 17.36 8.68 34.364 13.704 51.425l4.142 14.231a257828433574830 257828433574830 0 0 0 10.24 34.936l2.819 9.586C738.453 766.364 644.156 812.484 613.195 745.713l-3.026 -9.906a6612.632 6612.632 0 0 1 -6.197 -20.488c-1.707 -5.659 -3.433 -11.311 -5.196 -16.95 -6.749 -21.697 -5.587 -25.992 14.419 -35.78l5.402 -2.678c12.736 -6.161 25.7 -11.78 38.693 -17.374 5.469 -2.385 10.888 -4.895 16.291 -7.431 25.872 -11.994 25.872 -11.994 29.515 4.969" fill="#08A1AD"/><path d="M359.002 510.795c-82.595 3.783 -112.438 -117.835 -29.515 -142.832C424.538 351.887 449.937 488.061 359.002 510.795" fill="#6BEAC6"/><path d="m528.866 484.292 8.433 4.142c12.425 6.322 12.425 6.322 8.433 10.315 -0.659 23.498 17.522 37.183 21.309 6.551 2.461 -8.322 5.958 -5.904 13.628 -4.142l10.842 2.409c0 4.167 -0.104 8.334 -0.225 12.499 0.76 26.879 18.818 13.282 21.91 -5.271l-9.638 -2.409c0 -7.096 4.987 -4.734 9.638 -2.409a2638.306 2638.306 0 0 0 22.889 3.614c5.266 2.633 5.873 14.023 7.228 19.275 6.501 16.251 17.516 -0.011 19.125 -10.465 3.365 -6.828 21.835 -7.12 21.835 0.828l3.614 1.205c6.024 9.638 6.024 9.638 6.024 13.252l7.228 1.205c0 8.103 -0.243 33.732 -12.047 33.732 2.633 15.802 7.064 24.842 22.889 30.118 13.139 13.139 -17.68 8.75 -23.803 2.908 -3.611 -5.257 -6.78 -10.617 -9.929 -16.16l-6.024 -7.228 -2.409 -4.819c-6.884 0.948 -6.884 0.948 -14.456 7.228l-8.658 3.765C619.849 596.24 593.78 611.025 574.645 633.675c-19.915 15.932 -39.969 -37.684 -44.574 -51.802l-3.839 -10.692c-17.789 -57.714 0.247 -94.051 2.635 -86.889" fill="#F4E7CF"/><path d="M677.497 462.984c23.309 11.271 43.357 14.525 69.04 13.736 11.566 0.62 4.763 5.626 -0.824 11.563 -46.496 51.823 -31.858 120.227 -3.614 176.715l-0.225 10.993c-0.183 11.004 2.002 19.829 5.53 30.31 3.916 14.013 5.063 28.605 6.743 43.026l1.205 8.433c-10.595 -10.595 -12.601 -32.986 -15.661 -46.984 -2.699 -10.071 -5.575 -20.091 -8.433 -30.118 -5.619 -19.844 -10.9 -39.679 -15.388 -59.811 -1.146 -4.997 -2.479 -9.951 -3.888 -14.881h3.614c-0.422 -6.811 -0.422 -6.811 -7.379 -7.604C698.62 595.605 676.323 570.609 693.911 566.212c4.063 -9.635 4.063 -9.635 4.819 -20.48l2.409 -10.842 -7.228 -1.205a215.642 215.642 0 0 1 -7.228 -13.252l-2.409 -1.205v-2.409a560.188 560.188 0 0 0 -14.456 -1.205l-3.614 -1.205 -2.183 6.024c-9.762 26.772 -25.525 12.028 -25.525 -9.638 -5.546 -1.473 -5.546 -1.473 -12.272 -2.032 -12.563 -1.397 -12.563 -1.397 -19.05 -3.991 -10.877 0 2.638 4.396 6.024 4.819 3.412 13.647 -15.637 36.211 -22.889 14.456 -0.284 -14.806 -0.284 -14.806 1.205 -19.275 -16.931 -7.497 -16.931 -7.497 -22.889 3.614 -14.738 29.477 -28.845 9.369 -22.889 -14.456a1030.024 1030.024 0 0 0 -18.071 -9.638v-3.614l-2.409 -1.205c2.44 -12.505 4.418 -13.483 16.339 -8.584 33.015 12.902 69.673 6.628 99.312 -11.896 8.208 0 8.058 7.602 10.842 14.456 18.222 0 2.472 -22.562 25.751 -10.465" fill="#C4A37D"/><path d="M740.217 199.304C710.961 215.493 685.086 240.828 668.612 269.854l-4.819 8.433 -3.614 8.433c-5.908 11.815 -5.908 11.815 -9.11 3.614 -6.528 -16.068 -14.896 -29.949 -25.826 -43.369l-4.969 -6.399C607.944 225.651 592.056 211.097 574.645 202.391v-2.409c-4.951 -2.56 -4.951 -2.56 -10.842 -4.819 0 -42.49 211.086 -14.382 176.415 4.142" fill="#F83464"/><path d="M463.812 638.494a957.741 957.741 0 0 0 11.445 6.024c6.402 3.339 12.666 6.739 18.899 10.391 5.621 3.265 11.411 6.238 17.242 9.111 14.89 7.569 15.419 14.107 19.878 29.891 2.725 8.246 5.618 16.432 8.509 24.622l2.389 6.799q2.417 6.87 4.838 13.74a4314.052 4314.052 0 0 1 6.517 18.697l3.798 10.91c1.108 3.194 2.217 6.389 3.361 9.68 2.891 8.196 2.891 8.196 6.605 15.162 6.637 13.629 -3.219 8.409 -11.397 4.296l-7.667 -3.812L540.913 790.287l-9.939 -4.969L521.638 780.65q-6.173 -2.825 -12.348 -5.646c-16.053 -7.913 -17.908 -17.844 -23.191 -33.958 -8.386 -25.135 -17.336 -50.039 -26.471 -74.91l-2.992 -8.163 -2.672 -7.256c-8.312 -23.434 -8.312 -23.434 9.848 -12.222" fill="#23DAE2"/><path d="M361.412 525.252c-97.586 6.716 -133.586 -128.884 -42.466 -167.83C431.465 315.711 479.702 502.721 361.412 525.252m-2.409 -14.456c84.057 -21.17 71.56 -149.999 -19.275 -144.565 -89.994 16.186 -70.868 148.946 19.275 144.565" fill="#0D2030"/><path d="M458.24 166.852c20.039 11.506 40.85 19.699 62.682 27.111C537.187 199.767 552.187 206.69 566.212 216.847l6.475 4.518c24.323 18.377 108.737 108.19 60.988 130.409l-6.024 4.819c-7.745 -3.872 -2.978 -7.248 0 -14.456a521.638 521.638 0 0 0 2.409 -16.866l1.205 -2.409c1.626 -10.96 1.626 -10.96 -2.409 -18.071l-2.484 -4.592c-20.899 -36.907 -60.102 -52.924 -98.936 -64.151 -47.835 -13.869 -106.109 -91.129 -69.196 -69.196" fill="#F13868"/><path d="M361.412 537.299c-118.36 8.273 -148.507 -166.792 -32.15 -195.538C455.073 326.552 487.822 514.641 361.412 537.299m0 -12.047c108.257 -21.82 82.027 -179.284 -26.504 -172.273 -106.189 23.598 -80.45 177.983 26.504 172.273" fill="#9CADB7"/><path d="M584.885 698.428c5.466 18.695 11.421 37.205 17.468 55.718l3.148 9.934 3.102 9.642 2.761 8.677c3.018 7.841 6.886 14.135 11.469 21.139 0 32.956 -38.389 -1.832 -43.369 -15.36l-2.1 -5.701c-5.712 -15.591 -11.14 -31.274 -16.479 -46.996 -3.742 -10.898 -7.686 -21.714 -11.689 -32.517 -7.933 -23.335 -7.933 -23.335 3.765 -17.488 28.59 1.336 28.59 1.336 31.925 12.951" fill="#0AA6AF"/><path d="M843.294 503.567c-6.134 -0.964 -11.824 -2.332 -17.694 -4.367C728.566 474.086 746.724 612.156 768.602 661.384c2.255 18.046 -31.351 -50.778 -35.463 -69.195C722.469 467.713 843.294 467.552 843.294 503.567" fill="#F9F3F5"/><path d="m513.205 615.605 7.154 5.045c6.207 4.674 10.811 9.444 15.736 15.435l4.744 5.572C544.527 646.927 544.527 646.927 545.732 655.36l4.819 2.409 8.433 7.228c6.467 -1.617 9.514 -5.204 14.456 -9.638 9.55 -7.162 18.631 -11.915 29.365 -17.091l5.654 -2.729a736.075 736.075 0 0 1 41.442 -18.255c6.858 -2.819 6.858 -2.819 13.705 -6.937C668.743 607.721 681.864 604.528 681.864 614.4c-4.337 2.196 -8.746 4.249 -13.176 6.25l-8.64 3.924L650.541 628.857c-39.5 17.762 -39.5 17.762 -78.306 36.97 -24.865 11.766 -59.674 -17.044 -81.065 -29.982 -5.831 -3.566 -5.831 -3.566 -12.827 -6.914 -15.585 -7.873 -28.395 -26.048 -2.259 -14.23 14.785 7.786 29.178 16.078 43.068 25.375 29.37 19.492 22.024 6.12 1.279 -10.015 -5.369 -3.488 -10.811 -6.803 -16.32 -10.065 -7.538 -4.477 -14.859 -9.285 -22.23 -14.029l-8.433 -4.819c0 -25.223 29.825 6.445 39.755 14.456" fill="#F2F5F7"/><path d="M416.828 375.868c-8.256 -4.129 -16.213 -8.384 -23.868 -13.553C389.667 360.153 362.617 347.923 362.617 352.979c-4.114 0.167 -8.232 0.282 -12.348 0.377C285.97 355.969 249.385 406.624 267.445 469.835c1.525 37.206 -11.448 -8.965 -13.252 -21.685 -2.885 -74.059 70.407 -139.036 162.635 -72.282" fill="#EDF4F6"/><path d="M740.894 196.367c-8.927 0 -15.082 -0.718 -23.566 -2.785 -44.02 -10.646 -86.367 -8.87 -130.137 2.423 -49.07 11.789 7.421 -16.039 24.876 -20.494 34.551 -6.523 68.688 -6.146 128.828 20.857" fill="#F9F5F8"/><path d="M861.742 170.165c-18.789 18.343 -42.415 27.317 -66.786 35.84 -12.622 4.432 -24.233 9.305 -35.991 15.661l-7.002 3.614c-21.388 12.369 -56.296 36.242 -67.69 59.031 -8.598 0 15.081 -28.13 18.071 -31.322l5.271 -6.024c26.53 -28.68 58.717 -45.216 95.248 -57.75 60.598 -20.914 60.598 -20.914 58.88 -19.05" fill="#F5F1F4"/><path d="M391.252 636.537c2.994 13.689 7.162 27.073 11.119 40.508 12.308 42.068 -4.231 49.297 -16.866 7.228 -3.845 -13.918 -7.234 -27.915 -10.522 -41.972 -1.47 -5.987 -3.12 -11.89 -4.838 -17.812 -11.933 -44.418 15.173 -18.95 21.106 12.047" fill="#F0993D"/><path d="M668.236 408.019c-2.156 4.963 -2.156 4.963 -4.354 10.028L660.179 426.466c-2.685 6.091 -2.685 6.091 -3.614 13.252 -5.403 0 -5.668 -8.809 -7.233 -13.2 -3.686 -9.315 -8.376 -18.114 -13.011 -26.988 -18.261 -46.918 56.278 -47.121 31.914 8.488" fill="#B87224"/><path d="M458.24 166.852c20.039 11.506 40.85 19.699 62.682 27.111C537.187 199.767 552.187 206.69 566.212 216.847l6.475 4.518c10.562 7.98 51.819 54.207 38.852 44.574a367.435 367.435 0 0 1 -13.402 -11.896c-26.977 -24.383 -55.815 -39.095 -90.076 -51.186 -19.935 -7.069 -88.616 -59.056 -49.821 -36.005" fill="#F9F2F7"/><path d="M518.024 252.988a596.329 596.329 0 0 0 14.683 3.464c13.364 3.156 75.154 33.816 52.706 30.344 -16.85 -2.582 -26.648 -0.541 -40.885 8.357 -2.409 1.205 -2.409 1.205 -8.433 -4.819 -7.105 -5.813 -14.338 -11.356 -21.685 -16.866v-2.409l-3.614 -3.614 -3.614 -3.614 -8.433 -3.614c0 -15.044 9.252 -11.427 19.275 -7.228" fill="#B08B62"/><path d="M772.217 743.304a577.054 577.054 0 0 0 13.252 14.456c7.357 9.809 10.505 17.556 13.854 29.139 1.889 6.607 1.889 6.607 6.626 15.435l1.205 7.228h2.409c15.978 42 -34.362 -20.335 -40.96 -36.141 -2.231 -8.991 -2.735 -17.404 -2.711 -26.654l-0.019 -7.463c0.677 -11.913 3.764 -2.882 6.344 4" fill="#1DD8E4"/><path d="M463.812 638.494a957.741 957.741 0 0 0 11.445 6.024c6.402 3.339 12.666 6.739 18.899 10.391 5.621 3.265 11.411 6.238 17.242 9.111 13.489 6.856 13.489 6.856 15.059 17.844 -3.614 -2.409 -3.614 -2.409 -4.819 -7.228l-7.228 -2.409q-6.039 -2.982 -12.047 -6.024l-8.433 -3.614 -1.205 -2.409c-5.548 -1.75 -5.548 -1.75 -8.433 0l-3.614 -3.614c-24.092 -12.046 -9.969 16.896 -4.819 28.913 3.967 9.617 6.954 18.556 8.433 28.913l2.409 1.205a2614.212 2614.212 0 0 1 6.024 21.685l3.614 8.433 1.205 9.638 2.409 6.024 1.205 4.819h2.409v3.614l2.409 1.205c-14.671 -2.446 -15.784 -17.48 -19.878 -29.967 -8.386 -25.135 -17.336 -50.039 -26.471 -74.91l-2.992 -8.163 -2.672 -7.256c-8.312 -23.434 -8.312 -23.434 9.848 -12.222" fill="#79F5F9"/><path d="M403.577 425.261c-15.661 2.237 -15.661 2.237 -15.661 -6.024l-3.614 -1.205 -4.819 -4.819c-11.451 -7.373 -23.054 -10.026 -36.141 -13.252 -26.248 -26.248 62.244 -34.964 60.235 25.299" fill="#F4FEFC"/><path d="m396.575 607.549 2.193 8.951L401.167 626.447c5.61 22.224 11.271 44.367 18.071 66.259 4.065 14.228 2.788 26.504 -14.456 26.504l2.409 -1.205c1.289 -20.622 -5.391 -39.44 -11.168 -58.96 -2.49 -8.72 -4.628 -17.484 -6.658 -26.32a799.925 799.925 0 0 0 -3.2 -13.308c-4.716 -18.993 4.033 -38.614 10.409 -11.868" fill="#9D4E41"/><path d="M583.078 704.753c-2.409 -7.228 -2.409 -7.228 -2.409 -9.638l-4.819 -1.205v-4.819c-7.432 3.715 -4.086 6.91 -2.409 14.456 0.454 9.075 0.494 13.466 -3.614 21.685 -1.34 12.894 -1.34 12.894 4.819 21.685q0.636 6.623 1.205 13.252l3.614 7.228v12.047l4.819 2.409 -1.205 8.433h4.819c2.062 4.972 11.474 33.769 -1.205 16.866a798.72 798.72 0 0 1 -7.228 -18.974l-2.1 -5.701c-5.712 -15.591 -11.14 -31.274 -16.479 -46.996 -3.742 -10.898 -7.686 -21.714 -11.689 -32.517 -7.933 -23.335 -7.933 -23.335 3.765 -17.488 38.848 1.815 38.848 1.815 30.118 19.275" fill="#29D7E0"/><path d="m421.647 391.529 2.409 1.205v3.614h3.614c59.961 86.944 -79.46 185.804 -146.974 98.786 3.007 -9.022 14.953 8.929 18.071 12.047 78.984 51.882 175.182 -41.097 115.652 -120.471 0 -8.186 7.225 4.813 7.228 4.819" fill="#EEF3F5"/><path d="M763.784 292.744c-7.152 -2.635 -7.152 -2.635 -13.252 -6.024 -13.411 -3.353 -26.731 -1.422 -39.755 2.409 25.572 -51.143 128.233 -12.899 53.007 3.614" fill="#AC8C62"/><path d="M849.318 810.767c5.197 3.82 5.197 3.82 8.433 3.614 1.65 6.816 3.253 13.645 4.819 20.48l3.614 9.638c0 4.314 0 4.314 -16.866 -33.732" fill="#16CFDE"/><path d="m883.05 792.697 8.433 3.614 3.614 2.409 6.024 1.205c7.993 15.986 5.004 75.492 -18.071 34.936 -27.584 -57.927 -27.584 -57.927 0 -42.165" fill="#118093"/><path d="M801.13 758.965c0.575 14.013 2.654 26.637 6.072 40.189 5.067 24.475 -10.057 -14.953 -12.019 -21.667 -2.933 -9.063 -6.751 -14.306 -13.177 -21.308C768.602 741.304 768.602 741.304 768.602 733.666h-2.409c12.583 -31.457 34.545 8.328 34.936 25.299" fill="#09798D"/><path d="M833.657 766.193v2.409l7.228 1.205v2.409l7.228 2.409c6.701 5.026 5.936 8.768 6.852 16.942 0.52 8.017 0.52 8.017 2.785 15.585 -1.205 10.842 -1.205 10.842 -2.409 7.228l-4.819 -1.205c-6.024 -7.228 -6.024 -7.228 -9.411 -12.951 -4.029 -6.634 -8.541 -12.388 -13.478 -18.372 -12.773 -15.877 -18.93 -34.97 6.024 -15.661" fill="#04647B"/><path d="M728.847 332.499c-20.749 1.397 -32.925 -9.141 -18.071 -27.708 24.799 -12.4 39.365 10.674 18.071 27.708" fill="#F6F9FA"/><path d="M378.278 619.219c2.979 13.869 6.786 27.373 10.842 40.96q2.452 9.023 4.819 18.071c0.614 2.279 1.229 4.56 1.864 6.908l1.976 7.398 1.859 6.917c10.075 42.713 -18.628 -31.678 -21.656 -44.395q-1.503 -6.387 -2.997 -12.777c-1.47 -5.987 -3.12 -11.89 -4.838 -17.812 -6.567 -24.443 4.855 -34.969 8.132 -5.271" fill="#F8F4E3"/><path d="m681.864 284.311 2.409 1.205h-2.409c-1.7 5.568 -1.7 5.568 0 14.456l-3.614 8.433c-2.272 7.722 -2.272 7.722 1.205 12.047v2.409h4.819c7.744 15.488 -0.475 34.15 -18.071 24.094l-6.024 -2.409c0 -12.606 21.103 -61.399 21.685 -60.235" fill="#A67A69"/><path d="M567.417 333.704c-26.271 0 -31.563 -25.841 -4.819 -32.527 20.194 0 23.347 26.351 4.819 32.527" fill="#F4F8FA"/><path d="M769.807 339.727c-9.9 39.19 -67.464 43.589 -67.464 -2.409 5.662 -11.327 7.811 8.382 9.638 13.252 21.234 15.926 46.232 12.124 52.405 -16.941 4.139 -16.385 5.421 1.077 5.421 6.098" fill="#10BBCE"/><path d="M549.195 337.092c7.173 27.636 42.153 33.078 55.567 6.249 12.949 0 -17.263 25.757 -24.094 27.708 -43.936 0 -35.544 -50.919 -31.473 -33.957" fill="#0EB8CB"/><path d="M648.132 344.546a277.082 277.082 0 0 1 -14.456 7.228l-6.024 4.819c-7.745 -3.872 -2.978 -7.248 0 -14.456a521.638 521.638 0 0 0 2.409 -16.866l1.205 -2.409c0.169 -7.095 -0.036 -13.465 -1.205 -20.48 3.379 -30.415 18.071 32.527 18.071 42.165" fill="#AB8172"/><path d="M685.478 636.085a1103.511 1103.511 0 0 1 -13.252 4.819l-4.819 4.819 -4.819 -1.205 -2.409 4.819 -9.638 3.614v2.409l-9.638 1.205 -3.614 3.614 -6.024 1.205c-10.216 4.277 -10.216 4.277 -16.866 8.433l-7.228 1.205 -6.024 6.024 -3.614 3.614c2.2 10.321 5.096 20.104 8.433 30.118l1.205 7.228 2.409 1.205 -1.205 4.819h2.409c3.641 18.206 -7.82 -11.728 -8.508 -14.005l-3.205 -10.513C592.535 677.551 592.427 672.749 613.195 662.588l5.402 -2.678c12.719 -6.154 25.667 -11.763 38.641 -17.355C695.819 625.744 695.819 625.744 685.478 636.085" fill="#37E3E7"/><path d="m663.092 603.755 -7.505 2.965c-22.064 8.934 -43.162 18.843 -63.172 31.85 -19.458 12.033 17.375 -18.721 21.986 -21.761l7.154 -4.743c11.519 -6.627 61.795 -17.878 41.538 -8.311" fill="#F0F6F9"/><path d="M324.066 412.009c-20.441 6.814 -22.711 -12.857 -12.047 -25.299 20.227 -10.114 23.389 12.066 12.047 25.299" fill="#F6FEFE"/><path d="M642.108 385.506c-1.973 7.894 2.524 13.481 6.024 20.48v8.433h2.409a424.057 424.057 0 0 1 2.409 12.047l2.409 7.228c-2.683 10.73 -4.585 -3.012 -6.098 -6.927 -3.449 -8.764 -7.023 -16.791 -11.445 -25.148 -18.824 -40.383 43.912 -51.205 4.291 -16.113" fill="#F4F3D1"/><path d="M703.548 533.685c-19.525 -3.254 -26.408 -24.786 -1.506 -25.675 17.415 0.659 13.469 17.7 1.506 25.675" fill="#42433D"/><path d="m558.984 499.953 9.638 1.205c-3.401 30.607 -25.195 27.881 -24.094 -2.409 4.592 -4.592 9.421 -1.313 14.456 1.205" fill="#363A3B"/><path d="m778.24 397.553 5.497 4.518c7.446 7.042 0.602 19.576 -9.111 19.576 -2.737 -4.457 -5.351 -8.988 -7.905 -13.553l-4.297 -7.623c-10.703 -20.213 6.242 -11.854 15.817 -2.918" fill="#8C7959"/><path d="M656.565 383.097c-0.146 4.059 -0.241 8.119 -0.296 12.18l-0.12 6.889q-0.112 7.22 -0.207 14.438C655.543 438.417 650.541 432.449 650.541 414.419h-2.409l-1.054 -5.572c-1.041 -6.975 -1.041 -6.975 -6.174 -13.704 -1.628 -9.765 18.955 -38.4 15.661 -12.047" fill="#FAC117"/><path d="M536.094 420.442c-16.052 5.35 -12.823 -14.249 -5.722 -21.157l4.987 -4.9c24.417 -22.805 7.541 15.848 0.735 26.057" fill="#9E8B6B"/><path d="m651.144 511.097 7.115 -0.207c15.268 3.065 1.048 25.941 -12.536 24 -8.105 -14.184 -13.055 -23.548 5.421 -23.793" fill="#3F3B3A"/><path d="m604.762 509.591 9.638 1.205c-5.04 30.245 -24.905 25.417 -24.094 -2.409 4.204 -4.204 9.245 -0.431 14.456 1.205" fill="#393B40"/><path d="M750.532 437.308c-7.874 15.747 -20.466 -29.467 -21.685 -33.732 0 -22.44 20.597 27.205 21.685 33.732" fill="#8D7558"/><path d="M567.417 436.104c-15.352 3.071 -5.849 -14.723 -3.162 -23.265l2.212 -7.139c9.581 -25.501 10.334 16.329 0.951 30.404" fill="#967E63"/><path d="m810.767 386.711 -4.819 -2.409 -5.256 -2.617 -5.963 -3.106 -6.009 -3.068c-16.288 -11.902 37.629 -19.963 22.047 11.2" fill="#A07953"/><path d="m518.024 252.988 8.734 1.883c14.507 3.626 0.614 8.597 -6.325 12.574l-3.614 2.409c-4.819 0 -4.819 0 -7.228 -4.819l-10.842 -4.819c0 -15.058 9.249 -11.406 19.275 -7.228" fill="#D4BD95"/></svg>